<svg xmlns="http://www.w3.org/2000/svg" version="1.0" viewBox="0 0 22 22" width="48" height="48">
    <g>
        <path d="M 19.213 4.724 h -5.816 l 2.388 -2.275 a 0.852 0.852 0 0 0 0.041 -1.182 a 0.802 0.802 0 0 0 -1.153 -0.043 L 11 4.724 l -3.673 -3.5 a 0.802 0.802 0 0 0 -1.153 0.043 a 0.85 0.85 0 0 0 0.042 1.182 l 2.387 2.275 H 2.788 A 1.8 1.8 0 0 0 1 6.535 v 10.863 c 0 1 0.802 1.812 1.788 1.812 h 2.266 l 1.35 1.59 a 0.518 0.518 0 0 0 0.816 0 l 1.35 -1.59 h 4.86 l 1.35 1.59 a 0.518 0.518 0 0 0 0.816 0 l 1.35 -1.59 h 2.266 c 0.99 0 1.788 -0.811 1.788 -1.812 V 6.535 c 0 -1 -0.799 -1.81 -1.787 -1.81" fill="#FF0000"></path>
        <path d="M 8.3 15 L 13.7 12 L 8.3 9 V 15 Z" fill="#FFFFFF"></path>
    </g>
</svg>